<mxfile host="app.diagrams.net" modified="2025-03-02T14:59:09.160Z" agent="Mozilla/5.0 (Windows NT 10.0; Win64; x64) AppleWebKit/537.36 (KHTML, like Gecko) Chrome/132.0.0.0 Safari/537.36" etag="Q2eqK9XNMFfS-QW7EfJE" version="23.1.5" type="github">
  <diagram name="第 1 页" id="A1MJYrICQr1loOPpgWdV">
    <mxGraphModel dx="989" dy="543" grid="1" gridSize="10" guides="1" tooltips="1" connect="1" arrows="1" fold="1" page="1" pageScale="1" pageWidth="827" pageHeight="1169" math="0" shadow="0">
      <root>
        <mxCell id="0" />
        <mxCell id="1" parent="0" />
        <mxCell id="rKMU-E-TXmU3QqTT0SAN-15" value="" style="rounded=1;whiteSpace=wrap;html=1;" vertex="1" parent="1">
          <mxGeometry x="210" y="150" width="430" height="310" as="geometry" />
        </mxCell>
        <mxCell id="rKMU-E-TXmU3QqTT0SAN-17" value="" style="rounded=1;whiteSpace=wrap;html=1;" vertex="1" parent="1">
          <mxGeometry x="248" y="200" width="350" height="240" as="geometry" />
        </mxCell>
        <mxCell id="rKMU-E-TXmU3QqTT0SAN-12" value="" style="rounded=1;whiteSpace=wrap;html=1;" vertex="1" parent="1">
          <mxGeometry x="278" y="250" width="270" height="162.5" as="geometry" />
        </mxCell>
        <mxCell id="rKMU-E-TXmU3QqTT0SAN-10" value="Home" style="rounded=1;whiteSpace=wrap;html=1;" vertex="1" parent="1">
          <mxGeometry x="328" y="300" width="170" height="90" as="geometry" />
        </mxCell>
        <mxCell id="rKMU-E-TXmU3QqTT0SAN-9" value="Home" style="rounded=1;whiteSpace=wrap;html=1;" vertex="1" parent="1">
          <mxGeometry x="368" y="340" width="100" height="40" as="geometry" />
        </mxCell>
        <mxCell id="rKMU-E-TXmU3QqTT0SAN-11" value="&lt;div style=&quot;font-family: Consolas, &amp;quot;Courier New&amp;quot;, monospace; font-size: 14px; line-height: 19px;&quot;&gt;&lt;span style=&quot;background-color: rgb(255, 255, 255);&quot;&gt;&lt;font color=&quot;#1a1a1a&quot;&gt;MainFeedPage&lt;/font&gt;&lt;/span&gt;&lt;/div&gt;" style="text;strokeColor=none;fillColor=none;html=1;align=center;verticalAlign=middle;whiteSpace=wrap;rounded=0;fontSize=16;" vertex="1" parent="1">
          <mxGeometry x="382" y="300" width="60" height="30" as="geometry" />
        </mxCell>
        <mxCell id="rKMU-E-TXmU3QqTT0SAN-13" value="FeedLayoutProvider&lt;div style=&quot;color: rgb(248, 248, 242); background-color: rgb(39, 40, 34); font-family: Consolas, &amp;quot;Courier New&amp;quot;, monospace; font-size: 14px; line-height: 19px;&quot;&gt;&lt;/div&gt;" style="text;strokeColor=none;fillColor=none;html=1;align=center;verticalAlign=middle;whiteSpace=wrap;rounded=0;fontSize=16;" vertex="1" parent="1">
          <mxGeometry x="342" y="250" width="140" height="30" as="geometry" />
        </mxCell>
        <mxCell id="rKMU-E-TXmU3QqTT0SAN-14" style="edgeStyle=none;curved=1;rounded=0;orthogonalLoop=1;jettySize=auto;html=1;exitX=1;exitY=0.5;exitDx=0;exitDy=0;fontSize=12;startSize=8;endSize=8;" edge="1" parent="1" source="rKMU-E-TXmU3QqTT0SAN-13" target="rKMU-E-TXmU3QqTT0SAN-13">
          <mxGeometry relative="1" as="geometry" />
        </mxCell>
        <mxCell id="rKMU-E-TXmU3QqTT0SAN-16" value="MainLayout" style="text;strokeColor=none;fillColor=none;html=1;align=center;verticalAlign=middle;whiteSpace=wrap;rounded=0;fontSize=16;" vertex="1" parent="1">
          <mxGeometry x="382" y="200" width="60" height="30" as="geometry" />
        </mxCell>
        <mxCell id="rKMU-E-TXmU3QqTT0SAN-18" value="FooterNavBarLayout" style="text;strokeColor=none;fillColor=none;html=1;align=center;verticalAlign=middle;whiteSpace=wrap;rounded=0;fontSize=16;" vertex="1" parent="1">
          <mxGeometry x="384" y="160" width="60" height="30" as="geometry" />
        </mxCell>
      </root>
    </mxGraphModel>
  </diagram>
</mxfile>
